<?xml version="1.0" encoding="UTF-8" standalone="no"?>
<svg
   viewBox="-0.100011 -0.0998434 36.54 46.608952"
   version="1.1"
   id="svg4"
   width="36.540001"
   height="46.608959"
   xmlns="http://www.w3.org/2000/svg"
   xmlns:svg="http://www.w3.org/2000/svg">
  <defs
     id="defs8" />
  <path
     d="m 24.274995,21.048247 a 7.75,7.75 0 0 1 1.695,4.848 7.804,7.804 0 0 1 -1.743,4.905 l -0.094,0.116 -0.024,-0.147 a 7.138,7.138 0 0 0 -0.075,-0.377 c -0.545,-2.395 -2.322,-4.45 -5.245,-6.112 -1.974,-1.12 -3.104,-2.469 -3.4,-4.001 -0.193,-0.99 -0.05,-1.986 0.225,-2.839 0.276,-0.852 0.685,-1.566 1.033,-1.995 l 1.137,-1.392 a 0.5,0.5 0 0 1 0.772,0 l 5.72,6.993 z m 1.8,-1.39 -7.624,-9.32 a 0.364,0.364 0 0 0 -0.564,0 l -7.622,9.32 -0.025,0.031 a 10.102,10.102 0 0 0 -2.2409996,6.36 c 0,5.61 4.5539996,10.155 10.1699996,10.155 5.618,0 10.172,-4.546 10.172,-10.154 0,-2.408 -0.84,-4.62 -2.242,-6.36 l -0.025,-0.032 z m -13.986,1.36 0.682,-0.835 0.02,0.155 c 0.016,0.121 0.036,0.244 0.06,0.367 0.44,2.315 2.017,4.245 4.651,5.74 2.29,1.303 3.624,2.801 4.008,4.445 0.16,0.686 0.189,1.361 0.12,1.951 l -0.004,0.037 -0.034,0.016 a 7.778,7.778 0 0 1 -3.423,0.789 c -4.308,0 -7.8,-3.487 -7.8,-7.787 0,-1.847 0.644,-3.543 1.72,-4.878 z"
     stroke="#c0e6ff"
     stroke-width="0.1"
     fill="#c0e6ff"
     id="path2" />
</svg>
