<svg width="152" height="152" viewBox="0 0 152 152" fill="none" xmlns="http://www.w3.org/2000/svg">
<rect width="152" height="152" fill="url(#paint0_linear_179_62)"/>
<g clip-path="url(#clip0_179_62)">
<path d="M103.929 66.1237C108.893 72.4278 111.592 80.2596 111.581 88.3283C111.57 96.5098 108.792 104.44 103.712 110.794L103.288 111.325L103.18 110.652C103.082 110.073 102.969 109.498 102.841 108.925C100.381 97.9558 92.3584 88.5436 79.1626 80.9314C70.251 75.8016 65.1497 69.623 63.8134 62.6062C62.9421 58.0718 63.5877 53.51 64.8292 49.6031C66.0752 45.7008 67.9216 42.4306 69.4926 40.4657L74.6256 34.0901C74.8373 33.8292 75.1034 33.6191 75.4047 33.4748C75.706 33.3305 76.035 33.2557 76.3682 33.2557C76.7013 33.2557 77.0303 33.3305 77.3316 33.4748C77.6329 33.6191 77.899 33.8292 78.1107 34.0901L103.934 66.1192L103.929 66.1237ZM112.055 59.7573L77.6367 17.0703C77.4826 16.8787 77.2884 16.7243 77.0682 16.6183C76.8481 16.5123 76.6074 16.4573 76.3636 16.4573C76.1199 16.4573 75.8792 16.5123 75.659 16.6183C75.4389 16.7243 75.2447 16.8787 75.0906 17.0703L40.6813 59.7573L40.5684 59.8993C34.007 68.147 30.4356 78.4301 30.4515 89.0291C30.4515 114.724 51.0104 135.541 76.3636 135.541C101.726 135.541 122.285 114.719 122.285 89.0337C122.285 78.0046 118.493 67.8734 112.163 59.9039L112.055 59.7573ZM48.9157 65.9863L51.9945 62.1619L52.0848 62.8718C52.157 63.426 52.2473 63.9894 52.3557 64.5527C54.3421 75.1558 61.4614 83.9955 73.3525 90.8428C83.6906 96.8108 89.7129 103.672 91.4465 111.202C92.1688 114.344 92.2997 117.435 91.9882 120.137L91.9702 120.307L91.8167 120.38C87.0047 122.765 81.7189 124.001 76.3636 123.994C56.9153 123.994 41.1508 108.023 41.1508 88.3283C41.1508 79.8688 44.0581 72.1008 48.9157 65.9863Z" fill="white"/>
</g>
<defs>
<linearGradient id="paint0_linear_179_62" x1="76" y1="0" x2="76" y2="152" gradientUnits="userSpaceOnUse">
<stop stop-color="#F5841F"/>
<stop offset="1" stop-color="#B96027"/>
</linearGradient>
<clipPath id="clip0_179_62">
<rect width="92.7273" height="120" fill="white" transform="translate(30 16)"/>
</clipPath>
</defs>
</svg>
